<?xml version="1.0" encoding="utf-8"?>
<!-- Generator: Adobe Illustrator 16.0.0, SVG Export Plug-In . SVG Version: 6.00 Build 0)  -->
<!DOCTYPE svg PUBLIC "-//W3C//DTD SVG 1.1//EN" "http://www.w3.org/Graphics/SVG/1.1/DTD/svg11.dtd">
<svg version="1.1" id="Layer_1" xmlns="http://www.w3.org/2000/svg" xmlns:xlink="http://www.w3.org/1999/xlink" x="0px" y="0px"
	 width="1739px" height="441.54px" viewBox="0 0 1739 441.54" enable-background="new 0 0 1739 441.54" xml:space="preserve">
<g>
	<g>
		<g>
			<path display="none" fill="#2080A7" d="M190.663,322.691c35.412,0,64.13-33.281,63.978-74.201
				c-0.177-40.928-29.164-74.165-64.577-74.165c-35.444,0-64.129,33.236-63.964,74.165
				C126.264,289.41,155.221,322.691,190.663,322.691z M190.124,188.498c28.625,0,52.068,26.895,52.193,59.993
				c0.146,33.135-23.077,60.029-51.709,60.029c-28.661,0-52.069-26.895-52.208-60.029
				C138.278,215.392,161.463,188.498,190.124,188.498z"/>
			<path fill="#2080A7" d="M319.248,125.164c-37.046-5.507-74.096-11.017-111.142-16.528l33.565-51.065
				c-0.029-0.076-0.045-0.113-0.075-0.191l-45.412,42.163l-71.166-68.184c-0.184,0.194-0.383,0.331-0.575,0.499l54.387,72.427
				c-39.123-5.824-78.251-11.653-117.385-17.465c-19.861,0-36.005,16.464-36.005,36.726v249.915
				c0,20.26,16.144,36.723,36.005,36.723c85.935-12.766,171.862-25.572,257.803-38.34c19.869-4.141,36.004-16.459,36.004-36.729
				V161.888C355.252,141.626,339.117,129.303,319.248,125.164z M323.25,334.992c-79.178,9.893-170.364,19.756-249.527,29.617
				V132.371c79.164,9.901,170.349,19.754,249.527,29.624V334.992z"/>
			<polygon display="none" fill="#2080A7" points="226.917,248.162 169.194,286.182 169.194,210.15 226.917,248.162 			"/>
		</g>
	</g>
	<g>
		<path fill="#2080A7" d="M190.346,185.589c-33.209,0-60.132,23.979-60.132,53.563c0,20.236,12.6,37.828,31.175,46.941
			l-0.706,22.137l28.371-15.576c0.429,0.01,0.861,0.061,1.292,0.061c33.213,0,60.133-23.979,60.133-53.562
			C250.479,209.567,223.559,185.589,190.346,185.589z M197.637,269.887h-15.119v-42.979h15.119V269.887z M190.196,220.773
			c-4.868,0-8.113-3.076-8.005-6.871c-0.104-3.975,3.138-6.963,8.108-6.963s8.127,2.988,8.23,6.963
			C198.52,217.697,195.259,220.773,190.196,220.773z"/>
	</g>
	<g>
		<path fill="#2080A7" d="M591.648,195.146c-4.457-5.671-10.287-10.183-17.479-13.526c-7.193-3.345-14.131-5.014-20.818-5.014
			c-3.449,0-6.945,0.301-10.488,0.91c-3.547,0.605-6.74,1.776-9.572,3.496c-2.842,1.723-5.223,3.951-7.146,6.686
			c-1.928,2.738-2.887,6.232-2.887,10.487c0,3.647,0.76,6.686,2.279,9.118c1.52,2.434,3.748,4.56,6.688,6.386
			c2.936,1.822,6.432,3.494,10.486,5.016c4.053,1.517,8.611,3.09,13.68,4.709c7.295,2.436,14.895,5.12,22.795,8.055
			c7.904,2.939,15.094,6.838,21.584,11.703c6.48,4.863,11.852,10.893,16.109,18.086c4.254,7.195,6.383,16.162,6.383,26.902
			c0,12.361-2.281,23.053-6.84,32.064c-4.561,9.021-10.691,16.469-18.391,22.344c-7.703,5.875-16.516,10.234-26.441,13.068
			c-9.932,2.836-20.166,4.256-30.703,4.256c-15.402,0-30.295-2.688-44.68-8.055c-14.393-5.367-26.346-13.02-35.869-22.949
			l34.045-34.652c5.266,6.488,12.207,11.906,20.818,16.262c8.613,4.359,17.178,6.533,25.686,6.533c3.848,0,7.6-0.402,11.248-1.213
			c3.648-0.809,6.84-2.129,9.574-3.951c2.734-1.824,4.91-4.256,6.535-7.293c1.617-3.043,2.432-6.689,2.432-10.945
			c0-4.051-1.016-7.496-3.039-10.336c-2.027-2.836-4.916-5.42-8.662-7.75c-3.752-2.33-8.414-4.457-13.982-6.383
			c-5.576-1.924-11.908-4-19-6.229c-6.891-2.23-13.629-4.865-20.211-7.902c-6.588-3.045-12.465-6.943-17.631-11.705
			c-5.168-4.76-9.324-10.533-12.461-17.326c-3.146-6.786-4.713-15.045-4.713-24.774c0-11.954,2.432-22.189,7.295-30.699
			c4.865-8.51,11.248-15.501,19.15-20.974s16.818-9.471,26.748-12.007c9.926-2.529,19.957-3.798,30.094-3.798
			c12.156,0,24.566,2.233,37.234,6.686c12.662,4.459,23.756,11.05,33.281,19.759L591.648,195.146z"/>
		<path fill="#2080A7" d="M759.432,251.984c-2.84-3.645-6.688-6.58-11.551-8.812c-4.865-2.229-9.83-3.346-14.893-3.346
			c-5.273,0-10.033,1.068-14.287,3.193c-4.256,2.129-7.904,4.967-10.943,8.512s-5.422,7.65-7.143,12.311
			c-1.725,4.662-2.584,9.627-2.584,14.895s0.807,10.232,2.432,14.893c1.619,4.664,3.998,8.77,7.145,12.312
			c3.139,3.547,6.887,6.332,11.244,8.357c4.357,2.027,9.271,3.037,14.742,3.037c5.062,0,10.078-0.957,15.047-2.887
			c4.963-1.92,8.969-4.711,12.006-8.361l27.66,33.744c-6.283,6.078-14.389,10.842-24.314,14.285
			c-9.932,3.443-20.471,5.168-31.613,5.168c-11.959,0-23.119-1.824-33.482-5.473c-10.363-3.646-19.369-8.965-27.01-15.959
			c-7.646-6.988-13.66-15.447-18.045-25.379c-4.383-9.928-6.572-21.174-6.572-33.738c0-12.359,2.189-23.506,6.572-33.438
			c4.385-9.926,10.398-18.391,18.045-25.381c7.641-6.99,16.646-12.355,27.01-16.11c10.363-3.745,21.422-5.623,33.178-5.623
			c5.471,0,10.891,0.509,16.264,1.522c5.367,1.014,10.533,2.381,15.502,4.101c4.961,1.725,9.523,3.853,13.68,6.385
			c4.148,2.536,7.75,5.319,10.787,8.359L759.432,251.984z"/>
		<path fill="#2080A7" d="M905.938,244.084c-2.232-0.607-4.406-1.012-6.535-1.215c-2.129-0.201-4.209-0.305-6.23-0.305
			c-6.689,0-12.311,1.217-16.871,3.637c-4.557,2.426-8.205,5.357-10.941,8.791c-2.736,3.439-4.713,7.176-5.928,11.219
			s-1.824,7.576-1.824,10.605v77.604H807.76V203.23h48.025v21.885h0.609c3.844-7.752,9.316-14.08,16.41-18.975
			c7.092-4.896,15.299-7.347,24.623-7.347c2.023,0,4,0.103,5.926,0.304c1.924,0.206,3.496,0.508,4.713,0.912L905.938,244.084z"/>
		<path fill="#2080A7" d="M1072.812,280.559c0,2.027,0,4.057,0,6.078c0,2.029-0.104,3.953-0.303,5.777h-109.73
			c0.406,4.256,1.67,8.107,3.801,11.549c2.127,3.449,4.863,6.436,8.205,8.967c3.346,2.537,7.09,4.512,11.248,5.928
			c4.152,1.42,8.457,2.129,12.916,2.129c7.906,0,14.592-1.469,20.064-4.408c5.469-2.936,9.926-6.734,13.375-11.4l34.65,21.889
			c-7.096,10.33-16.467,18.285-28.117,23.859c-11.656,5.57-25.178,8.359-40.576,8.359c-11.355,0-22.092-1.777-32.221-5.32
			c-10.137-3.543-19.002-8.709-26.598-15.502c-7.6-6.785-13.576-15.146-17.936-25.076c-4.357-9.928-6.533-21.275-6.533-34.045
			c0-12.355,2.127-23.557,6.383-33.586c4.254-10.033,10.029-18.543,17.324-25.535c7.297-6.989,15.906-12.41,25.838-16.262
			c9.926-3.845,20.67-5.774,32.221-5.774c11.143,0,21.375,1.877,30.699,5.623c9.318,3.755,17.326,9.172,24.014,16.262
			c6.688,7.098,11.902,15.708,15.654,25.836C1070.939,256.041,1072.812,267.592,1072.812,280.559z M1026.916,261.408
			c0-7.902-2.484-14.689-7.449-20.365c-4.965-5.67-12.412-8.51-22.34-8.51c-4.863,0-9.322,0.76-13.373,2.277
			c-4.057,1.521-7.6,3.602-10.641,6.232c-3.037,2.637-5.469,5.729-7.293,9.271c-1.824,3.549-2.842,7.248-3.041,11.094H1026.916z"/>
		<path fill="#2080A7" d="M1253.971,280.559c0,2.027,0,4.057,0,6.078c0,2.029-0.105,3.953-0.305,5.777h-109.729
			c0.404,4.256,1.67,8.107,3.803,11.549c2.123,3.449,4.861,6.436,8.203,8.967c3.346,2.537,7.09,4.512,11.25,5.928
			c4.148,1.42,8.459,2.129,12.918,2.129c7.902,0,14.586-1.469,20.061-4.408c5.471-2.936,9.926-6.734,13.373-11.4l34.652,21.889
			c-7.096,10.33-16.467,18.285-28.115,23.859c-11.658,5.57-25.184,8.359-40.584,8.359c-11.35,0-22.086-1.777-32.215-5.32
			c-10.139-3.543-19-8.709-26.598-15.502c-7.6-6.785-13.58-15.146-17.934-25.076c-4.361-9.928-6.537-21.275-6.537-34.045
			c0-12.355,2.129-23.557,6.385-33.586c4.254-10.033,10.029-18.543,17.324-25.535c7.293-6.989,15.904-12.41,25.836-16.262
			c9.928-3.845,20.672-5.774,32.223-5.774c11.139,0,21.375,1.877,30.697,5.623c9.322,3.755,17.33,9.172,24.014,16.262
			c6.689,7.098,11.902,15.708,15.656,25.836C1252.096,256.041,1253.971,267.592,1253.971,280.559z M1208.074,261.408
			c0-7.902-2.486-14.689-7.447-20.365c-4.967-5.67-12.418-8.51-22.338-8.51c-4.867,0-9.328,0.76-13.377,2.277
			c-4.059,1.521-7.602,3.602-10.639,6.232c-3.041,2.637-5.471,5.729-7.297,9.271c-1.822,3.549-2.838,7.248-3.039,11.094H1208.074z"
			/>
		<path fill="#2080A7" d="M1384.367,354.42v-82.676c0-4.256-0.357-8.305-1.062-12.158c-0.715-3.848-1.877-7.242-3.496-10.184
			c-1.625-2.936-3.902-5.268-6.84-6.99c-2.938-1.719-6.639-2.586-11.094-2.586c-4.461,0-8.361,0.867-11.701,2.586
			c-3.346,1.723-6.133,4.104-8.359,7.143c-2.232,3.041-3.906,6.535-5.016,10.486c-1.119,3.951-1.672,8.053-1.672,12.309v82.07
			h-50.154V203.048h48.33v20.975h0.607c1.824-3.243,4.205-6.432,7.143-9.576c2.938-3.142,6.385-5.825,10.336-8.053
			s8.252-4.052,12.918-5.475c4.66-1.414,9.621-2.126,14.895-2.126c10.129,0,18.74,1.824,25.836,5.47
			c7.092,3.646,12.814,8.358,17.174,14.135c4.354,5.774,7.496,12.415,9.424,19.909c1.922,7.5,2.885,15,2.885,22.496v93.617H1384.367
			z"/>
		<path fill="#2080A7" d="M1638.174,205.481c0,12.565-2.332,23.152-6.988,31.763c-4.666,8.615-10.943,15.555-18.848,20.822
			c-7.902,5.271-17.02,9.117-27.355,11.551c-10.336,2.428-21.078,3.645-32.219,3.645h-25.838v81.158h-51.977V139.217h79.029
			c11.748,0,22.746,1.169,32.98,3.494c10.229,2.333,19.148,6.081,26.746,11.248c7.602,5.166,13.576,11.959,17.938,20.365
			C1635.994,182.735,1638.174,193.121,1638.174,205.481z M1586.197,205.783c0-5.062-1.014-9.218-3.039-12.461
			c-2.027-3.242-4.762-5.777-8.207-7.601c-3.445-1.823-7.348-3.039-11.703-3.647c-4.359-0.606-8.867-0.909-13.525-0.909h-22.797
			v50.758h21.885c4.865,0,9.521-0.4,13.98-1.213c4.455-0.811,8.459-2.229,12.008-4.258c3.543-2.021,6.332-4.711,8.359-8.055
			C1585.184,215.056,1586.197,210.851,1586.197,205.783z"/>
		<path fill="#2080A7" d="M1713.561,154.718c0,3.853-0.762,7.447-2.279,10.793c-1.521,3.341-3.549,6.229-6.08,8.66
			c-2.537,2.436-5.578,4.361-9.117,5.777c-3.549,1.418-7.25,2.126-11.096,2.126c-8.107,0-14.895-2.682-20.367-8.055
			c-5.469-5.367-8.207-11.803-8.207-19.301c0-3.645,0.707-7.143,2.129-10.485c1.416-3.345,3.441-6.232,6.078-8.663
			c2.631-2.432,5.672-4.406,9.121-5.928c3.441-1.522,7.189-2.281,11.246-2.281c3.846,0,7.547,0.713,11.096,2.126
			c3.539,1.422,6.58,3.346,9.117,5.779c2.531,2.431,4.559,5.316,6.08,8.663C1712.799,147.273,1713.561,150.872,1713.561,154.718z
			 M1660.064,354.42V203.048h49.848V354.42H1660.064z"/>
	</g>
</g>
</svg>
