<?xml version="1.0" encoding="utf-8"?>
<!-- Generator: Adobe Illustrator 16.0.0, SVG Export Plug-In . SVG Version: 6.00 Build 0)  -->
<!DOCTYPE svg PUBLIC "-//W3C//DTD SVG 1.1//EN" "http://www.w3.org/Graphics/SVG/1.1/DTD/svg11.dtd">
<svg version="1.1" id="Logo" xmlns="http://www.w3.org/2000/svg" xmlns:xlink="http://www.w3.org/1999/xlink" x="0px" y="0px"
	 width="800px" height="617.308px" viewBox="0 0 800 617.308" enable-background="new 0 0 800 617.308" xml:space="preserve">
<g>
	<g>
		<g>
			<path display="none" fill="#2080A6" d="M400.316,313.33c35.412,0,64.13-33.281,63.978-74.2
				c-0.177-40.929-29.164-74.165-64.577-74.165c-35.444,0-64.129,33.236-63.964,74.165
				C335.918,280.049,364.875,313.33,400.316,313.33z M399.778,179.137c28.625,0,52.068,26.894,52.193,59.993
				c0.146,33.134-23.077,60.029-51.709,60.029c-28.661,0-52.069-26.895-52.208-60.029
				C347.932,206.031,371.117,179.137,399.778,179.137z"/>
			<path fill="#2080A6" d="M528.901,115.803c-37.046-5.507-74.096-11.017-111.142-16.528l33.565-51.065
				c-0.029-0.076-0.045-0.113-0.075-0.191l-45.412,42.163l-71.166-68.184c-0.184,0.194-0.383,0.331-0.575,0.499l54.387,72.427
				c-39.123-5.824-78.251-11.653-117.385-17.465c-19.861,0-36.005,16.464-36.005,36.726v249.915
				c0,20.26,16.144,36.723,36.005,36.723c85.935-12.767,171.862-25.573,257.803-38.341c19.87-4.141,36.005-16.458,36.005-36.728
				V152.527C564.906,132.266,548.771,119.942,528.901,115.803z M532.904,325.631c-79.179,9.894-170.364,19.756-249.528,29.618
				V123.01c79.164,9.901,170.349,19.754,249.528,29.624V325.631z"/>
			<polygon display="none" fill="#2080A6" points="436.571,238.802 378.848,276.82 378.848,200.789 436.571,238.802 			"/>
		</g>
	</g>
	<g>
		<path fill="#2080A6" d="M400,176.228c-33.209,0-60.132,23.979-60.132,53.564c0,20.235,12.6,37.827,31.175,46.941l-0.706,22.136
			l28.371-15.576c0.429,0.009,0.861,0.06,1.292,0.06c33.213,0,60.133-23.979,60.133-53.562
			C460.133,200.207,433.213,176.228,400,176.228z M407.291,260.526h-15.119v-42.978h15.119V260.526z M399.85,211.413
			c-4.868,0-8.113-3.076-8.005-6.871c-0.104-3.976,3.138-6.964,8.108-6.964s8.127,2.988,8.23,6.964
			C408.174,208.336,404.913,211.413,399.85,211.413z"/>
	</g>
	<g>
		<path fill="#2080A6" d="M99.327,493.839c-2.707-3.442-6.245-6.182-10.61-8.211c-4.368-2.03-8.579-3.044-12.639-3.044
			c-2.093,0-4.216,0.183-6.366,0.553c-2.154,0.367-4.092,1.078-5.812,2.122c-1.724,1.046-3.169,2.398-4.337,4.059
			c-1.17,1.662-1.752,3.783-1.752,6.366c0,2.214,0.461,4.059,1.383,5.535c0.922,1.478,2.276,2.768,4.06,3.876
			c1.781,1.106,3.904,2.121,6.365,3.045c2.46,0.921,5.228,1.876,8.304,2.858c4.428,1.479,9.041,3.108,13.839,4.891
			c4.797,1.784,9.162,4.15,13.102,7.104c3.934,2.952,7.195,6.613,9.779,10.979c2.583,4.368,3.875,9.812,3.875,16.331
			c0,7.504-1.384,13.994-4.151,19.465c-2.768,5.477-6.49,9.997-11.164,13.563c-4.677,3.567-10.027,6.213-16.052,7.934
			c-6.028,1.722-12.242,2.584-18.638,2.584c-9.35,0-18.391-1.632-27.124-4.891c-8.737-3.258-15.993-7.903-21.774-13.931
			l20.667-21.036c3.197,3.938,7.41,7.229,12.639,9.872c5.228,2.646,10.426,3.966,15.592,3.966c2.335,0,4.613-0.244,6.827-0.736
			c2.215-0.49,4.152-1.292,5.813-2.398c1.66-1.107,2.981-2.583,3.967-4.428c0.982-1.847,1.477-4.061,1.477-6.644
			c0-2.459-0.618-4.551-1.847-6.274c-1.23-1.722-2.983-3.29-5.258-4.705c-2.277-1.414-5.106-2.705-8.487-3.875
			c-3.386-1.167-7.229-2.428-11.533-3.781c-4.184-1.354-8.275-2.953-12.27-4.797c-3.999-1.848-7.566-4.215-10.703-7.105
			c-3.137-2.889-5.66-6.395-7.565-10.518c-1.91-4.119-2.861-9.134-2.861-15.039c0-7.257,1.477-13.47,4.429-18.636
			c2.953-5.166,6.828-9.41,11.625-12.732c4.798-3.322,10.21-5.749,16.238-7.289c6.025-1.535,12.115-2.306,18.268-2.306
			c7.38,0,14.914,1.355,22.604,4.059c7.686,2.707,14.42,6.708,20.204,11.995L99.327,493.839z"/>
		<path fill="#2080A6" d="M201.179,528.343c-1.723-2.213-4.059-3.995-7.011-5.351c-2.953-1.353-5.968-2.03-9.042-2.03
			c-3.2,0-6.089,0.648-8.672,1.938c-2.583,1.292-4.797,3.015-6.643,5.167c-1.845,2.152-3.292,4.644-4.336,7.473
			c-1.047,2.831-1.569,5.845-1.569,9.042c0,3.198,0.49,6.212,1.476,9.041c0.983,2.831,2.428,5.323,4.337,7.474
			c1.906,2.153,4.181,3.845,6.826,5.073c2.645,1.231,5.628,1.845,8.949,1.845c3.074,0,6.119-0.582,9.134-1.753
			c3.013-1.166,5.444-2.859,7.289-5.075l16.792,20.483c-3.815,3.69-8.736,6.582-14.761,8.673c-6.029,2.09-12.426,3.137-19.19,3.137
			c-7.261,0-14.036-1.107-20.327-3.322c-6.291-2.214-11.757-5.442-16.396-9.688c-4.642-4.243-8.292-9.378-10.953-15.406
			c-2.662-6.027-3.991-12.854-3.991-20.481c0-7.503,1.329-14.27,3.991-20.298c2.661-6.026,6.311-11.164,10.953-15.408
			c4.639-4.243,10.105-7.5,16.396-9.779c6.292-2.273,13.005-3.413,20.142-3.413c3.321,0,6.611,0.309,9.873,0.924
			c3.257,0.615,6.394,1.445,9.41,2.489c3.013,1.047,5.781,2.339,8.304,3.876c2.519,1.539,4.705,3.229,6.55,5.074L201.179,528.343z"
			/>
		<path fill="#2080A6" d="M290.117,523.546c-1.354-0.368-2.676-0.613-3.967-0.737c-1.292-0.122-2.555-0.185-3.783-0.185
			c-4.06,0-7.472,0.738-10.241,2.208c-2.767,1.473-4.982,3.252-6.643,5.336c-1.661,2.088-2.86,4.356-3.598,6.811
			c-0.738,2.454-1.107,4.599-1.107,6.438v47.109h-30.261v-91.78h29.154v13.285h0.369c2.335-4.706,5.657-8.547,9.963-11.519
			c4.304-2.973,9.288-4.46,14.947-4.46c1.228,0,2.428,0.062,3.597,0.185c1.168,0.125,2.122,0.309,2.861,0.554L290.117,523.546z"/>
		<path fill="#2080A6" d="M391.419,545.688c0,1.23,0,2.462,0,3.689c0,1.232-0.063,2.399-0.184,3.507h-66.612
			c0.246,2.584,1.014,4.922,2.307,7.012c1.292,2.093,2.952,3.906,4.981,5.443c2.03,1.539,4.304,2.738,6.828,3.598
			c2.52,0.862,5.134,1.293,7.841,1.293c4.799,0,8.856-0.892,12.179-2.677c3.321-1.781,6.025-4.088,8.119-6.92l21.035,13.287
			c-4.307,6.271-9.996,11.101-17.068,14.483c-7.076,3.382-15.286,5.075-24.633,5.075c-6.892,0-13.41-1.079-19.559-3.229
			c-6.153-2.151-11.534-5.287-16.146-9.41c-4.613-4.12-8.242-9.195-10.887-15.224c-2.646-6.026-3.967-12.915-3.967-20.666
			c0-7.501,1.292-14.301,3.875-20.389c2.583-6.091,6.089-11.257,10.517-15.501c4.429-4.243,9.655-7.533,15.685-9.872
			c6.026-2.334,12.547-3.505,19.56-3.505c6.764,0,12.976,1.14,18.636,3.413c5.656,2.279,10.518,5.568,14.578,9.872
			c4.059,4.309,7.225,9.535,9.503,15.684C390.281,530.805,391.419,537.817,391.419,545.688z M363.557,534.063
			c0-4.798-1.508-8.918-4.521-12.363c-3.015-3.442-7.535-5.166-13.562-5.166c-2.952,0-5.659,0.462-8.119,1.383
			c-2.463,0.924-4.613,2.187-6.458,3.783c-1.845,1.601-3.321,3.478-4.429,5.628c-1.107,2.154-1.724,4.4-1.845,6.735H363.557z"/>
		<path fill="#2080A6" d="M501.392,545.688c0,1.23,0,2.462,0,3.689c0,1.232-0.064,2.399-0.186,3.507h-66.61
			c0.245,2.584,1.014,4.922,2.308,7.012c1.289,2.093,2.951,3.906,4.979,5.443c2.031,1.539,4.305,2.738,6.83,3.598
			c2.518,0.862,5.135,1.293,7.842,1.293c4.797,0,8.854-0.892,12.178-2.677c3.321-1.781,6.025-4.088,8.118-6.92l21.036,13.287
			c-4.308,6.271-9.996,11.101-17.068,14.483c-7.076,3.382-15.287,5.075-24.636,5.075c-6.89,0-13.408-1.079-19.557-3.229
			c-6.154-2.151-11.533-5.287-16.146-9.41c-4.612-4.12-8.243-9.195-10.886-15.224c-2.647-6.026-3.969-12.915-3.969-20.666
			c0-7.501,1.292-14.301,3.876-20.389c2.582-6.091,6.089-11.257,10.517-15.501c4.428-4.243,9.655-7.533,15.684-9.872
			c6.027-2.334,12.549-3.505,19.561-3.505c6.763,0,12.977,1.14,18.636,3.413c5.658,2.279,10.52,5.568,14.577,9.872
			c4.061,4.309,7.226,9.535,9.504,15.684C500.253,530.805,501.392,537.817,501.392,545.688z M473.529,534.063
			c0-4.798-1.509-8.918-4.521-12.363c-3.015-3.442-7.538-5.166-13.561-5.166c-2.954,0-5.662,0.462-8.12,1.383
			c-2.464,0.924-4.615,2.187-6.458,3.783c-1.847,1.601-3.321,3.478-4.43,5.628c-1.106,2.154-1.724,4.4-1.845,6.735H473.529z"/>
		<path fill="#2080A6" d="M580.549,590.526v-50.189c0-2.583-0.218-5.041-0.646-7.38c-0.434-2.336-1.14-4.396-2.122-6.183
			c-0.986-1.781-2.369-3.197-4.152-4.243c-1.783-1.043-4.03-1.569-6.734-1.569c-2.708,0-5.075,0.526-7.104,1.569
			c-2.03,1.046-3.723,2.491-5.074,4.336c-1.355,1.846-2.371,3.967-3.045,6.366c-0.68,2.398-1.015,4.889-1.015,7.472v49.821h-30.446
			v-91.891h29.339v12.732h0.368c1.107-1.968,2.553-3.904,4.336-5.812c1.783-1.907,3.877-3.536,6.275-4.889s5.009-2.46,7.842-3.323
			c2.828-0.858,5.84-1.291,9.041-1.291c6.149,0,11.377,1.107,15.684,3.32c4.306,2.214,7.779,5.074,10.426,8.581
			c2.644,3.505,4.551,7.536,5.721,12.085c1.167,4.553,1.752,9.105,1.752,13.656v56.831H580.549z"/>
		<path fill="#2080A6" d="M734.623,500.112c0,7.628-1.416,14.055-4.243,19.282c-2.832,5.229-6.643,9.442-11.441,12.64
			c-4.797,3.2-10.332,5.535-16.606,7.012c-6.273,1.475-12.795,2.213-19.559,2.213h-15.685v49.268h-31.552v-130.64h47.975
			c7.132,0,13.808,0.71,20.021,2.121c6.21,1.416,11.624,3.691,16.236,6.828c4.614,3.136,8.241,7.26,10.889,12.362
			C733.3,486.305,734.623,492.609,734.623,500.112z M703.07,500.296c0-3.073-0.616-5.596-1.846-7.564
			c-1.23-1.968-2.891-3.507-4.981-4.614c-2.092-1.106-4.461-1.845-7.104-2.214c-2.646-0.368-5.383-0.552-8.211-0.552h-13.839v30.813
			h13.285c2.953,0,5.78-0.244,8.487-0.737c2.704-0.491,5.135-1.353,7.289-2.584c2.151-1.228,3.844-2.86,5.074-4.89
			C702.454,505.925,703.07,503.372,703.07,500.296z"/>
		<path fill="#2080A6" d="M780.386,469.297c0,2.339-0.462,4.521-1.383,6.552c-0.924,2.028-2.154,3.781-3.691,5.257
			c-1.54,1.479-3.386,2.647-5.535,3.507c-2.154,0.861-4.4,1.291-6.735,1.291c-4.922,0-9.041-1.628-12.363-4.89
			c-3.32-3.258-4.982-7.165-4.982-11.717c0-2.213,0.43-4.336,1.292-6.365c0.86-2.03,2.09-3.783,3.69-5.259
			c1.597-1.477,3.442-2.675,5.537-3.599c2.089-0.924,4.364-1.385,6.826-1.385c2.335,0,4.581,0.433,6.735,1.291
			c2.149,0.863,3.995,2.031,5.535,3.508c1.537,1.476,2.768,3.228,3.691,5.259C779.924,464.777,780.386,466.962,780.386,469.297z
			 M747.911,590.526v-91.891h30.261v91.891H747.911z"/>
	</g>
</g>
</svg>
